<svg xmlns="http://www.w3.org/2000/svg" width="200" height="200" fill="none" viewBox="0 0 200 200">
  <path fill="#fff" d="M0 0h200v200H0V0Z"/>
  <path fill="#009540" d="M40 101.026c0 21.609 10.888 40.942 30.014 50.409 17.998 8.886 41.972 8.886 60.026 0 17.805-8.778 29.96-28.8 29.96-50.409C160 67.993 133.596 41 100.001 41 66.265 41 40 67.788 40 101.026Z"/>
  <path fill="#fff" d="M100.028 56.557c-6.036 20.49-24.034 50.506-37.18 65.221h31.144l.082 8.915c-.082 5.059-4.107 10.324-9.95 10.254-8.132-.111-18.302-3.874-24.444-14.305-4.467-7.606-7.719-13.599-7.719-25.616 0-26.251 21.14-48.012 48.038-48.012 26.595 0 48.037 22.393 48.037 48.012 0 12.017-5.593 22.419-7.467 25.411-6.559 10.636-16.563 14.401-24.307 14.498-5.318.069-10.254-3.862-10.254-10.269v-8.888h31.61c-13.614-14.715-31.61-44.731-37.59-65.221Z"/>
</svg>
